<?xml version="1.0" encoding="UTF-8"?>
<svg xmlns="http://www.w3.org/2000/svg" viewBox="0 0 1080 630" font-family="'Comic Neue', 'Microsoft YaHei', 'PingFang SC', Arial, sans-serif">
  <defs>
    <marker id="arrow-solid" markerWidth="8" markerHeight="6" refX="7" refY="3" orient="auto">
      <path d="M0,0 L8,3 L0,6 Z" fill="#e67e22"/>
    </marker>
    <marker id="arrow-dash" markerWidth="8" markerHeight="6" refX="7" refY="3" orient="auto">
      <path d="M0,0 L8,3 L0,6 Z" fill="#f39c12"/>
    </marker>
    <marker id="arrow-return" markerWidth="8" markerHeight="6" refX="7" refY="3" orient="auto">
      <path d="M0,0 L8,3 L0,6 Z" fill="#95a5a6"/>
    </marker>
    <marker id="arrow-blue" markerWidth="8" markerHeight="6" refX="7" refY="3" orient="auto">
      <path d="M0,0 L8,3 L0,6 Z" fill="#3498db"/>
    </marker>
    <linearGradient id="bg" x1="0" y1="0" x2="0" y2="1">
      <stop offset="0%" stop-color="#fdfbf7"/>
      <stop offset="100%" stop-color="#f5f0e8"/>
    </linearGradient>
    <filter id="soft-shadow" x="-10%" y="-10%" width="130%" height="130%">
      <feDropShadow dx="2" dy="3" stdDeviation="4" flood-color="#d4c5a9" flood-opacity="0.4"/>
    </filter>
    <filter id="light-glow" x="-20%" y="-20%" width="140%" height="140%">
      <feGaussianBlur in="SourceAlpha" stdDeviation="1.5"/>
      <feMerge>
        <feMergeNode in="offsetblur" />
        <feMergeNode in="SourceGraphic" />
      </feMerge>
    </filter>
  </defs>

  <rect width="1080" height="630" fill="url(#bg)"/>
  <path d="M0,560 Q150,520 275,540 Q400,490 550,520 Q700,480 850,510 Q970,490 1080,515 L1080,630 L0,630 Z" fill="#e8e0d0" opacity="0.4"/>
  <path d="M0,570 Q225,540 400,560 Q575,530 750,555 Q900,535 1080,560 L1080,630 L0,630 Z" fill="#ddd2be" opacity="0.3"/>

  <!-- 整体放大填满画布，保持经纬度比例 -->
  <path d="M940,520 Q800,465 660,410" 
        stroke="#e74c3c" stroke-width="4.5" fill="none" stroke-linecap="round" marker-end="url(#arrow-solid)"/>
  <path d="M660,410 Q515,365 350,320" 
        stroke="#e74c3c" stroke-width="4.5" fill="none" stroke-linecap="round" marker-end="url(#arrow-solid)"/>

  <path d="M350,320 Q260,210 150,100" 
        stroke="#3498db" stroke-width="4.5" fill="none" stroke-linecap="round" marker-end="url(#arrow-blue)"/>
  <path d="M150,100 Q180,120 200,140" 
        stroke="#3498db" stroke-width="4.5" fill="none" stroke-linecap="round" marker-end="url(#arrow-blue)"/>
  <path d="M200,140 Q185,250 170,380" 
        stroke="#3498db" stroke-width="4.5" fill="none" stroke-linecap="round" marker-end="url(#arrow-blue)"/>

  <path d="M170,380 Q270,445 330,500" 
        stroke="#2ecc71" stroke-width="4.5" fill="none" stroke-linecap="round" marker-end="url(#arrow-solid)"/>
  <path d="M330,500 Q270,508 245,515" 
        stroke="#2ecc71" stroke-width="4.5" fill="none" stroke-linecap="round" marker-end="url(#arrow-solid)"/>

  <path d="M245,515 Q325,490 390,460" 
        stroke="#f39c12" stroke-width="4.5" fill="none" stroke-linecap="round" marker-end="url(#arrow-solid)"/>
  <path d="M390,460 Q340,450 300,440" 
        stroke="#f39c12" stroke-width="4.5" fill="none" stroke-linecap="round" marker-end="url(#arrow-solid)"/>

  <path d="M300,440 Q410,415 520,420" 
        stroke="#9b59b6" stroke-width="4.5" fill="none" stroke-linecap="round" marker-end="url(#arrow-solid)"/>
  <path d="M520,420 Q480,410 440,420" 
        stroke="#9b59b6" stroke-width="4.5" fill="none" stroke-linecap="round" marker-end="url(#arrow-solid)"/>

  <path d="M440,420 Q390,375 340,335" 
        stroke="#e67e22" stroke-width="4.5" fill="none" stroke-linecap="round" marker-end="url(#arrow-solid)"/>
  <path d="M340,335 Q410,340 480,345" 
        stroke="#e67e22" stroke-width="4.5" fill="none" stroke-linecap="round" marker-end="url(#arrow-solid)"/>
  <path d="M480,345 Q410,340 340,335" 
        stroke="#95a5a6" stroke-width="3" stroke-dasharray="8,6" fill="none" stroke-linecap="round"/>
  <path d="M340,335 Q400,190 485,50" 
        stroke="#e67e22" stroke-width="4.5" fill="none" stroke-linecap="round" marker-end="url(#arrow-solid)"/>

  <path d="M485,50 Q350,210 170,380" 
        stroke="#95a5a6" stroke-width="3" stroke-dasharray="8,6" fill="none" stroke-linecap="round" marker-end="url(#arrow-return)"/>
  <path d="M170,380 Q525,505 940,520" 
        stroke="#95a5a6" stroke-width="3" stroke-dasharray="8,6" fill="none" stroke-linecap="round" marker-end="url(#arrow-return)"/>


  <circle cx="940" cy="520" r="22" fill="#c0392b" stroke="#fff" stroke-width="4" filter="url(#soft-shadow)"/>
  <text x="940" y="525" text-anchor="middle" font-size="14" fill="#fff" font-weight="bold">乌鲁木齐</text>
  <text x="940" y="555" text-anchor="middle" font-size="12" fill="#c0392b">🚩 起点</text>

  <circle cx="660" cy="410" r="15" fill="#e74c3c" stroke="#fff" stroke-width="3" filter="url(#soft-shadow)"/>
  <text x="660" y="395" text-anchor="middle" font-size="13" fill="#2c3e50" font-weight="bold">安集海峡谷</text>

  <circle cx="350" cy="320" r="14" fill="#e74c3c" stroke="#fff" stroke-width="3" filter="url(#soft-shadow)"/>
  <text x="350" y="345" text-anchor="middle" font-size="13" fill="#2c3e50" font-weight="bold">精河县</text>

  <circle cx="150" cy="100" r="18" fill="#3498db" stroke="#fff" stroke-width="3" filter="url(#soft-shadow)"/>
  <text x="150" y="75" text-anchor="middle" font-size="14" fill="#2c3e50" font-weight="bold">赛里木湖</text>
  <text x="150" y="125" text-anchor="middle" font-size="11" fill="#2980b9">✨ 大西洋最后一滴眼泪</text>

  <circle cx="200" cy="140" r="13" fill="#3498db" stroke="#fff" stroke-width="3" filter="url(#soft-shadow)"/>
  <text x="200" y="165" text-anchor="middle" font-size="13" fill="#2c3e50" font-weight="bold">果子沟大桥</text>

  <circle cx="170" cy="380" r="19" fill="#2c3e50" stroke="#fff" stroke-width="4" filter="url(#soft-shadow)"/>
  <text x="170" y="385" text-anchor="middle" font-size="14" fill="#fff" font-weight="bold">伊宁</text>
  <text x="170" y="410" text-anchor="middle" font-size="11" fill="#2c3e50">中转站</text>

  <circle cx="330" cy="500" r="15" fill="#27ae60" stroke="#fff" stroke-width="3" filter="url(#soft-shadow)"/>
  <text x="290" y="490" text-anchor="end" font-size="14" fill="#2c3e50" font-weight="bold">喀拉峻</text>
  <text x="290" y="505" text-anchor="end" font-size="11" fill="#27ae60">草原之王</text>

  <circle cx="245" cy="515" r="15" fill="#27ae60" stroke="#fff" stroke-width="3" filter="url(#soft-shadow)"/>
  <text x="245" y="500" text-anchor="middle" font-size="13" fill="#2c3e50" font-weight="bold">特克斯</text>
  <text x="245" y="535" text-anchor="middle" font-size="10" fill="#27ae60">八卦城</text>

  <circle cx="390" cy="460" r="13" fill="#f39c12" stroke="#fff" stroke-width="3" filter="url(#soft-shadow)"/>
  <text x="390" cy="445" text-anchor="middle" font-size="13" fill="#2c3e50" font-weight="bold">库尔德宁</text>

  <circle cx="300" cy="440" r="14" fill="#f39c12" stroke="#fff" stroke-width="3" filter="url(#soft-shadow)"/>
  <text x="300" cy="460" text-anchor="middle" font-size="13" fill="#2c3e50" font-weight="bold">巩留</text>

  <circle cx="520" cy="420" r="18" fill="#8e44ad" stroke="#fff" stroke-width="3" filter="url(#soft-shadow)"/>
  <text x="520" cy="400" text-anchor="middle" font-size="14" fill="#2c3e50" font-weight="bold">那拉提</text>
  <text x="520" cy="440" text-anchor="middle" font-size="11" fill="#8e44ad">空中草原</text>

  <circle cx="440" cy="420" r="14" fill="#8e44ad" stroke="#fff" stroke-width="3" filter="url(#soft-shadow)"/>
  <text x="440" cy="440" text-anchor="middle" font-size="13" fill="#2c3e50" font-weight="bold">新源</text>

  <circle cx="340" cy="335" r="13" fill="#e67e22" stroke="#fff" stroke-width="3" filter="url(#soft-shadow)"/>
  <text x="340" cy="320" text-anchor="middle" font-size="13" fill="#2c3e50" font-weight="bold">蜂蜜小镇</text>

  <circle cx="480" cy="345" r="15" fill="#e67e22" stroke="#fff" stroke-width="3" filter="url(#soft-shadow)"/>
  <text x="480" cy="330" text-anchor="middle" font-size="13" fill="#2c3e50" font-weight="bold">乔尔玛</text>
  <text x="480" cy="360" text-anchor="middle" font-size="10" fill="#e67e22">烈士陵园</text>

  <circle cx="485" cy="50" r="14" fill="#e67e22" stroke="#fff" stroke-width="3" filter="url(#soft-shadow)"/>
  <text x="485" cy="35" text-anchor="middle" font-size="13" fill="#2c3e50" font-weight="bold">仙女湖</text>


  <g transform="translate(800, 460) rotate(-15)">
    <rect x="-48" y="-15" width="96" height="25" rx="12" fill="#fdedec" stroke="#e74c3c" stroke-width="1.5"/>
    <text x="0" y="4" text-anchor="middle" font-size="11" fill="#e74c3c">🚗 约230km/3h</text>
  </g>
  <g transform="translate(505, 365) rotate(-10)">
    <rect x="-45" y="-13" width="88" height="22" rx="11" fill="#fdedec" stroke="#e74c3c" stroke-width="1.2"/>
    <text x="0" y="3" text-anchor="middle" font-size="10" fill="#e74c3c">约140km/2h</text>
  </g>
  <g transform="translate(250, 210) rotate(-20)">
    <rect x="-45" y="-13" width="88" height="22" rx="11" fill="#ebf5fb" stroke="#3498db" stroke-width="1.2"/>
    <text x="0" y="3" text-anchor="middle" font-size="10" fill="#2980b9">约140km/2h</text>
  </g>
  <g transform="translate(175, 120) rotate(15)">
    <rect x="-32" y="-12" width="62" height="22" rx="11" fill="#ebf5fb" stroke="#3498db" stroke-width="1.2"/>
    <text x="0" y="3" text-anchor="middle" font-size="10" fill="#2980b9">50km/1h</text>
  </g>
  <g transform="translate(185, 260) rotate(-10)">
    <rect x="-45" y="-13" width="88" height="22" rx="11" fill="#ebf5fb" stroke="#3498db" stroke-width="1.2"/>
    <text x="0" y="3" text-anchor="middle" font-size="10" fill="#2980b9">约120km/2h</text>
  </g>
  <g transform="translate(250, 440) rotate(12)">
    <rect x="-38" y="-13" width="75" height="22" rx="11" fill="#e8f8f5" stroke="#2ecc71" stroke-width="1.2"/>
    <text x="0" y="3" text-anchor="middle" font-size="10" fill="#27ae60">110km/2h</text>
  </g>
  <g transform="translate(287, 508) rotate(-8)">
    <rect x="-32" y="-12" width="62" height="22" rx="11" fill="#e8f8f5" stroke="#2ecc71" stroke-width="1.2"/>
    <text x="0" y="3" text-anchor="middle" font-size="10" fill="#27ae60">41km/1h</text>
  </g>
  <g transform="translate(317, 487) rotate(0)">
    <rect x="-44" y="-13" width="88" height="22" rx="11" fill="#fef9e7" stroke="#f39c12" stroke-width="1.2"/>
    <text x="0" y="3" text-anchor="middle" font-size="10" fill="#e67e22">约100km/2h</text>
  </g>
  <g transform="translate(315, 460) rotate(-10)">
    <rect x="-38" y="-13" width="75" height="22" rx="11" fill="#fef9e7" stroke="#f39c12" stroke-width="1.2"/>
    <text x="0" y="3" text-anchor="middle" font-size="10" fill="#e67e22">50km/1h</text>
  </g>
  <g transform="translate(410, 430) rotate(-20)">
    <rect x="-48" y="-15" width="96" height="25" rx="12" fill="#f4ecf7" stroke="#9b59b6" stroke-width="1.5"/>
    <text x="0" y="4" text-anchor="middle" font-size="11" fill="#8e44ad">🚗 约155km/2.5h</text>
  </g>
  <g transform="translate(480, 420) rotate(10)">
    <rect x="-38" y="-13" width="75" height="22" rx="11" fill="#f4ecf7" stroke="#9b59b6" stroke-width="1.2"/>
    <text x="0" y="3" text-anchor="middle" font-size="10" fill="#8e44ad">约80km/1.5h</text>
  </g>
  <g transform="translate(390, 380) rotate(-12)">
    <rect x="-44" y="-13" width="88" height="22" rx="11" fill="#fef9e7" stroke="#e67e22" stroke-width="1.2"/>
    <text x="0" y="3" text-anchor="middle" font-size="10" fill="#e67e22">约85km/1.5h</text>
  </g>
  <g transform="translate(410, 280) rotate(-10)">
    <rect x="-38" y="-13" width="75" height="22" rx="11" fill="#fef9e7" stroke="#e67e22" stroke-width="1.2"/>
    <text x="0" y="3" text-anchor="middle" font-size="10" fill="#e67e22">约60km/1h</text>
  </g>
  <g transform="translate(412, 192) rotate(-25)">
    <rect x="-38" y="-13" width="75" height="22" rx="11" fill="#fef9e7" stroke="#e67e22" stroke-width="1.2"/>
    <text x="0" y="3" text-anchor="middle" font-size="10" fill="#e67e22">约40km/1h</text>
  </g>
  <g transform="translate(327, 210) rotate(-25)">
    <rect x="-48" y="-13" width="96" height="22" rx="11" fill="#e8e0d0" stroke="#95a5a6" stroke-width="1.2"/>
    <text x="0" y="3" text-anchor="middle" font-size="10" fill="#7f8c8d">约250km/4h</text>
  </g>
  <g transform="translate(555, 450) rotate(-10)">
    <rect x="-52" y="-15" width="104" height="25" rx="12" fill="#e8e0d0" stroke="#95a5a6" stroke-width="1.5"/>
    <text x="0" y="4" text-anchor="middle" font-size="11" fill="#7f8c8d">🚗 约690km/8h</text>
  </g>


  <g transform="translate(800, 20)">
    <rect x="0" y="0" width="260" height="50" rx="12" fill="#fdedec" stroke="#e74c3c" stroke-width="2" filter="url(#light-glow)"/>
    <text x="15" y="21" font-size="12" fill="#e74c3c" font-weight="bold">Day 1 · 5/1</text>
    <text x="15" y="38" font-size="11" fill="#7f8c8d">乌鲁木齐→安集海→精河</text>
  </g>
  <g transform="translate(800, 80)">
    <rect x="0" y="0" width="260" height="50" rx="12" fill="#ebf5fb" stroke="#3498db" stroke-width="2" filter="url(#light-glow)"/>
    <text x="15" y="21" font-size="12" fill="#2980b9" font-weight="bold">Day 2 · 5/2</text>
    <text x="15" y="38" font-size="11" fill="#7f8c8d">精河→赛湖→果子沟→伊宁</text>
  </g>
  <g transform="translate(800, 140)">
    <rect x="0" y="0" width="260" height="50" rx="12" fill="#e8f8f5" stroke="#2ecc71" stroke-width="2" filter="url(#light-glow)"/>
    <text x="15" y="21" font-size="12" fill="#27ae60" font-weight="bold">Day 3 · 5/3</text>
    <text x="15" y="38" font-size="11" fill="#7f8c8d">伊宁→喀拉峻→特克斯</text>
  </g>
  <g transform="translate(800, 200)">
    <rect x="0" y="0" width="260" height="50" rx="12" fill="#fef9e7" stroke="#f39c12" stroke-width="2" filter="url(#light-glow)"/>
    <text x="15" y="21" font-size="12" fill="#e67e22" font-weight="bold">Day 4 · 5/4</text>
    <text x="15" y="38" font-size="11" fill="#7f8c8d">特克斯→库尔德宁→巩留</text>
  </g>
  <g transform="translate(800, 260)">
    <rect x="0" y="0" width="260" height="50" rx="12" fill="#f4ecf7" stroke="#9b59b6" stroke-width="2" filter="url(#light-glow)"/>
    <text x="15" y="21" font-size="12" fill="#8e44ad" font-weight="bold">Day 5 · 5/5</text>
    <text x="15" y="38" font-size="11" fill="#7f8c8d">巩留→那拉提→新源</text>
  </g>
  <g transform="translate(800, 320)">
    <rect x="0" y="0" width="260" height="50" rx="12" fill="#fef9e7" stroke="#e67e22" stroke-width="2" filter="url(#light-glow)"/>
    <text x="15" y="21" font-size="12" fill="#e67e22" font-weight="bold">Day 6 · 5/6</text>
    <text x="15" y="38" font-size="11" fill="#7f8c8d">新源→蜂蜜小镇→乔尔玛→仙女湖</text>
  </g>
  <g transform="translate(800, 380)">
    <rect x="0" y="0" width="260" height="50" rx="12" fill="#e8e0d0" stroke="#95a5a6" stroke-width="2" filter="url(#light-glow)"/>
    <text x="15" y="21" font-size="12" fill="#7f8c8d" font-weight="bold">Day 7 · 5/7</text>
    <text x="15" y="38" font-size="11" fill="#7f8c8d">仙女湖→伊宁→乌鲁木齐</text>
  </g>


  <g transform="translate(30, 470)">
    <rect x="0" y="0" width="260" height="80" rx="12" fill="white" stroke="#d5cfc0" stroke-width="1" opacity="0.92"/>
    <text x="15" y="24" font-size="12" fill="#2c3e50" font-weight="bold">📌 图例</text>
    <line x1="15" y1="42" x2="48" y2="42" stroke="#e67e22" stroke-width="3" stroke-linecap="round"/>
    <text x="55" y="46" font-size="10" fill="#5d6d7e">主路线（去程）</text>
    <line x1="15" y1="62" x2="48" y2="62" stroke="#95a5a6" stroke-width="2" stroke-dasharray="6,4" stroke-linecap="round"/>
    <text x="55" y="66" font-size="10" fill="#5d6d7e">返程 / 虚线路段</text>
  </g>

</svg>
