<?xml version="1.0" encoding="UTF-8"?>
<svg xmlns="http://www.w3.org/2000/svg" viewBox="0 0 1080 630" font-family="'Comic Neue', 'Microsoft YaHei', 'PingFang SC', Arial, sans-serif">
  <defs>
    <marker id="arrow-solid" markerWidth="8" markerHeight="6" refX="7" refY="3" orient="auto">
      <path d="M0,0 L8,3 L0,6 Z" fill="#e67e22"/>
    </marker>
    <marker id="arrow-dash" markerWidth="8" markerHeight="6" refX="7" refY="3" orient="auto">
      <path d="M0,0 L8,3 L0,6 Z" fill="#f39c12"/>
    </marker>
    <marker id="arrow-return" markerWidth="8" markerHeight="6" refX="7" refY="3" orient="auto">
      <path d="M0,0 L8,3 L0,6 Z" fill="#95a5a6"/>
    </marker>
    <marker id="arrow-blue" markerWidth="8" markerHeight="6" refX="7" refY="3" orient="auto">
      <path d="M0,0 L8,3 L0,6 Z" fill="#3498db"/>
    </marker>
    <linearGradient id="bg" x1="0" y1="0" x2="0" y2="1">
      <stop offset="0%" stop-color="#fdfbf7"/>
      <stop offset="100%" stop-color="#f5f0e8"/>
    </linearGradient>
    <filter id="soft-shadow" x="-10%" y="-10%" width="130%" height="130%">
      <feDropShadow dx="2" dy="3" stdDeviation="4" flood-color="#d4c5a9" flood-opacity="0.4"/>
    </filter>
  </defs>

  <rect width="1080" height="630" fill="url(#bg)"/>
  <path d="M0,560 Q150,520 275,540 Q400,490 550,520 Q700,480 850,510 Q970,490 1080,515 L1080,630 L0,630 Z" fill="#e8e0d0" opacity="0.4"/>
  <path d="M0,570 Q225,540 400,560 Q575,530 750,555 Q900,535 1080,560 L1080,630 L0,630 Z" fill="#ddd2be" opacity="0.3"/>

  <!-- 更平滑弯曲的路线，保持经纬度比例 -->
  <path d="M940,520 C820,490 720,460 660,410 C610,380 540,350 350,320" 
        stroke="#e74c3c" stroke-width="4.5" fill="none" stroke-linecap="round" marker-end="url(#arrow-solid)"/>
  <path d="M350,320 C260,270 200,180 150,100 C165,110 185,125 200,140" 
        stroke="#3498db" stroke-width="4.5" fill="none" stroke-linecap="round" marker-end="url(#arrow-blue)"/>
  <path d="M200,140 C190,200 180,300 170,380 C220,420 280,460 330,500" 
        stroke="#3498db" stroke-width="4.5" fill="none" stroke-linecap="round" marker-end="url(#arrow-blue)"/>
  <path d="M170,380 C210,400 270,440 330,500 C295,502 260,508 245,515" 
        stroke="#2ecc71" stroke-width="4.5" fill="none" stroke-linecap="round" marker-end="url(#arrow-solid)"/>
  <path d="M245,515 C300,495 350,480 390,460 C360,450 330,440 300,440" 
        stroke="#f39c12" stroke-width="4.5" fill="none" stroke-linecap="round" marker-end="url(#arrow-solid)"/>
  <path d="M300,440 C360,420 440,410 520,420 C490,415 460,415 440,420" 
        stroke="#9b59b6" stroke-width="4.5" fill="none" stroke-linecap="round" marker-end="url(#arrow-solid)"/>
  <path d="M440,420 C400,385 370,360 340,335 C380,337 430,340 480,345" 
        stroke="#e67e22" stroke-width="4.5" fill="none" stroke-linecap="round" marker-end="url(#arrow-solid)"/>
  <path d="M480,345 C440,340 400,335 340,335" 
        stroke="#95a5a6" stroke-width="3" stroke-dasharray="8,6" fill="none" stroke-linecap="round"/>
  <path d="M340,335 C380,260 430,160 485,50" 
        stroke="#e67e22" stroke-width="4.5" fill="none" stroke-linecap="round" marker-end="url(#arrow-solid)"/>
  <path d="M485,50 C400,160 280,280 170,380" 
        stroke="#95a5a6" stroke-width="3" stroke-dasharray="8,6" fill="none" stroke-linecap="round" marker-end="url(#arrow-return)"/>
  <path d="M170,380 C350,460 640,500 940,520" 
        stroke="#95a5a6" stroke-width="3" stroke-dasharray="8,6" fill="none" stroke-linecap="round" marker-end="url(#arrow-return)"/>


  <!-- 节点圆点，地名错开位置 -->
  <circle cx="940" cy="520" r="22" fill="#c0392b" stroke="#fff" stroke-width="4" filter="url(#soft-shadow)"/>
  <text x="940" y="570" text-anchor="middle" font-size="14" fill="#c0392b" font-weight="bold">乌鲁木齐🚩</text>

  <circle cx="660" cy="410" r="15" fill="#e74c3c" stroke="#fff" stroke-width="3" filter="url(#soft-shadow)"/>
  <text x="660" y="385" text-anchor="middle" font-size="13" fill="#2c3e50" font-weight="bold">安集海峡谷</text>

  <circle cx="350" cy="320" r="14" fill="#e74c3c" stroke="#fff" stroke-width="3" filter="url(#soft-shadow)"/>
  <text x="350" y="350" text-anchor="middle" font-size="13" fill="#2c3e50" font-weight="bold">精河县</text>

  <circle cx="150" cy="100" r="18" fill="#3498db" stroke="#fff" stroke-width="3" filter="url(#soft-shadow)"/>
  <text x="150" y="70" text-anchor="middle" font-size="14" fill="#2c3e50" font-weight="bold">赛里木湖</text>
  <text x="150" y="130" text-anchor="middle" font-size="11" fill="#2980b9">✨大西洋最后一滴眼泪</text>

  <circle cx="200" cy="140" r="13" fill="#3498db" stroke="#fff" stroke-width="3" filter="url(#soft-shadow)"/>
  <text x="200" y="170" text-anchor="middle" font-size="13" fill="#2c3e50" font-weight="bold">果子沟大桥</text>

  <circle cx="170" cy="380" r="19" fill="#2c3e50" stroke="#fff" stroke-width="4" filter="url(#soft-shadow)"/>
  <text x="170" y="420" text-anchor="middle" font-size="14" fill="#fff" font-weight="bold">伊宁</text>
  <text x="170" y="445" text-anchor="middle" font-size="11" fill="#2c3e50">中转站</text>

  <circle cx="330" cy="500" r="15" fill="#27ae60" stroke="#fff" stroke-width="3" filter="url(#soft-shadow)"/>
  <text x="285" y="490" text-anchor="end" font-size="14" fill="#2c3e50" font-weight="bold">喀拉峻</text>
  <text x="285" y="505" text-anchor="end" font-size="11" fill="#27ae60">草原之王</text>

  <circle cx="245" cy="515" r="15" fill="#27ae60" stroke="#fff" stroke-width="3" filter="url(#soft-shadow)"/>
  <text x="245" y="495" text-anchor="middle" font-size="13" fill="#2c3e50" font-weight="bold">特克斯</text>
  <text x="245" y="540" text-anchor="middle" font-size="10" fill="#27ae60">八卦城</text>

  <circle cx="390" cy="460" r="13" fill="#f39c12" stroke="#fff" stroke-width="3" filter="url(#soft-shadow)"/>
  <text x="390" cy="440" text-anchor="middle" font-size="13" fill="#2c3e50" font-weight="bold">库尔德宁</text>

  <circle cx="300" cy="440" r="14" fill="#f39c12" stroke="#fff" stroke-width="3" filter="url(#soft-shadow)"/>
  <text x="300" y="465" text-anchor="middle" font-size="13" fill="#2c3e50" font-weight="bold">巩留</text>

  <circle cx="520" cy="420" r="18" fill="#8e44ad" stroke="#fff" stroke-width="3" filter="url(#soft-shadow)"/>
  <text x="520" y="395" text-anchor="middle" font-size="14" fill="#2c3e50" font-weight="bold">那拉提</text>
  <text x="520" y="445" text-anchor="middle" font-size="11" fill="#8e44ad">空中草原</text>

  <circle cx="440" cy="420" r="14" fill="#8e44ad" stroke="#fff" stroke-width="3" filter="url(#soft-shadow)"/>
  <text x="440" y="445" text-anchor="middle" font-size="13" fill="#2c3e50" font-weight="bold">新源</text>

  <circle cx="340" cy="335" r="13" fill="#e67e22" stroke="#fff" stroke-width="3" filter="url(#soft-shadow)"/>
  <text x="340" y="315" text-anchor="middle" font-size="13" fill="#2c3e50" font-weight="bold">蜂蜜小镇</text>

  <circle cx="480" cy="345" r="15" fill="#e67e22" stroke="#fff" stroke-width="3" filter="url(#soft-shadow)"/>
  <text x="480" y="325" text-anchor="middle" font-size="13" fill="#2c3e50" font-weight="bold">乔尔玛</text>
  <text x="480" y="365" text-anchor="middle" font-size="10" fill="#e67e22">烈士陵园</text>

  <circle cx="485" cy="50" r="14" fill="#e67e22" stroke="#fff" stroke-width="3" filter="url(#soft-shadow)"/>
  <text x="485" y="30" text-anchor="middle" font-size="13" fill="#2c3e50" font-weight="bold">仙女湖</text>


  <!-- 车程标注：无边框透明背景 -->
  <text x="800" y="460" transform="rotate(-15 800 460)" font-size="11" fill="#e74c3c">🚗 约230km/3h</text>
  <text x="505" y="365" transform="rotate(-10 505 365)" font-size="10" fill="#e74c3c">约140km/2h</text>
  <text x="250" y="210" transform="rotate(-20 250 210)" font-size="10" fill="#2980b9">约140km/2h</text>
  <text x="175" y="120" transform="rotate(15 175 120)" font-size="10" fill="#2980b9">50km/1h</text>
  <text x="185" y="260" transform="rotate(-10 185 260)" font-size="10" fill="#2980b9">约120km/2h</text>
  <text x="250" y="440" transform="rotate(12 250 440)" font-size="10" fill="#27ae60">110km/2h</text>
  <text x="287" y="508" transform="rotate(-8 287 508)" font-size="10" fill="#27ae60">41km/1h</text>
  <text x="317" y="487" font-size="10" fill="#e67e22">约100km/2h</text>
  <text x="315" y="460" transform="rotate(-10 315 460)" font-size="10" fill="#e67e22">50km/1h</text>
  <text x="410" y="430" transform="rotate(-20 410 430)" font-size="11" fill="#8e44ad">🚗 约155km/2.5h</text>
  <text x="480" y="420" transform="rotate(10 480 420)" font-size="10" fill="#8e44ad">约80km/1.5h</text>
  <text x="390" y="380" transform="rotate(-12 390 380)" font-size="10" fill="#e67e22">约85km/1.5h</text>
  <text x="410" y="280" transform="rotate(-10 410 280)" font-size="10" fill="#e67e22">约60km/1h</text>
  <text x="412" y="192" transform="rotate(-25 412 192)" font-size="10" fill="#e67e22">约40km/1h</text>
  <text x="327" y="210" transform="rotate(-25 327 210)" font-size="10" fill="#7f8c8d">约250km/4h</text>
  <text x="555" y="450" transform="rotate(-10 555 450)" font-size="11" fill="#7f8c8d">🚗 约690km/8h</text>


  <!-- 每日行程卡片（右侧） -->
  <g transform="translate(800, 20)">
    <rect x="0" y="0" width="260" height="50" rx="12" fill="#fdedec" stroke="#e74c3c" stroke-width="2" filter="url(#soft-shadow)"/>
    <text x="15" y="21" font-size="12" fill="#e74c3c" font-weight="bold">Day 1 · 5/1</text>
    <text x="15" y="38" font-size="11" fill="#7f8c8d">乌鲁木齐→安集海→精河</text>
  </g>
  <g transform="translate(800, 80)">
    <rect x="0" y="0" width="260" height="50" rx="12" fill="#ebf5fb" stroke="#3498db" stroke-width="2" filter="url(#soft-shadow)"/>
    <text x="15" y="21" font-size="12" fill="#2980b9" font-weight="bold">Day 2 · 5/2</text>
    <text x="15" y="38" font-size="11" fill="#7f8c8d">精河→赛湖→果子沟→伊宁</text>
  </g>
  <g transform="translate(800, 140)">
    <rect x="0" y="0" width="260" height="50" rx="12" fill="#e8f8f5" stroke="#2ecc71" stroke-width="2" filter="url(#soft-shadow)"/>
    <text x="15" y="21" font-size="12" fill="#27ae60" font-weight="bold">Day 3 · 5/3</text>
    <text x="15" y="38" font-size="11" fill="#7f8c8d">伊宁→喀拉峻→特克斯</text>
  </g>
  <g transform="translate(800, 200)">
    <rect x="0" y="0" width="260" height="50" rx="12" fill="#fef9e7" stroke="#f39c12" stroke-width="2" filter="url(#soft-shadow)"/>
    <text x="15" y="21" font-size="12" fill="#e67e22" font-weight="bold">Day 4 · 5/4</text>
    <text x="15" y="38" font-size="11" fill="#7f8c8d">特克斯→库尔德宁→巩留</text>
  </g>
  <g transform="translate(800, 260)">
    <rect x="0" y="0" width="260" height="50" rx="12" fill="#f4ecf7" stroke="#9b59b6" stroke-width="2" filter="url(#soft-shadow)"/>
    <text x="15" y="21" font-size="12" fill="#8e44ad" font-weight="bold">Day 5 · 5/5</text>
    <text x="15" y="38" font-size="11" fill="#7f8c8d">巩留→那拉提→新源</text>
  </g>
  <g transform="translate(800, 320)">
    <rect x="0" y="0" width="260" height="50" rx="12" fill="#fef9e7" stroke="#e67e22" stroke-width="2" filter="url(#soft-shadow)"/>
    <text x="15" y="21" font-size="12" fill="#e67e22" font-weight="bold">Day 6 · 5/6</text>
    <text x="15" y="38" font-size="11" fill="#7f8c8d">新源→蜂蜜小镇→乔尔玛→仙女湖</text>
  </g>
  <g transform="translate(800, 380)">
    <rect x="0" y="0" width="260" height="50" rx="12" fill="#e8e0d0" stroke="#95a5a6" stroke-width="2" filter="url(#soft-shadow)"/>
    <text x="15" y="21" font-size="12" fill="#7f8c8d" font-weight="bold">Day 7 · 5/7</text>
    <text x="15" y="38" font-size="11" fill="#7f8c8d">仙女湖→伊宁→乌鲁木齐</text>
  </g>

</svg>
